<?xml version='1.0' encoding='UTF-8'?>
<svg width="49mm" height="49mm" version="1.1" viewBox="0 0 49 49" xmlns="http://www.w3.org/2000/svg"><path d="M4,4H5V5H4zM5,4H6V5H5zM6,4H7V5H6zM7,4H8V5H7zM8,4H9V5H8zM9,4H10V5H9zM10,4H11V5H10zM12,4H13V5H12zM15,4H16V5H15zM20,4H21V5H20zM21,4H22V5H21zM22,4H23V5H22zM23,4H24V5H23zM24,4H25V5H24zM25,4H26V5H25zM28,4H29V5H28zM29,4H30V5H29zM30,4H31V5H30zM34,4H35V5H34zM35,4H36V5H35zM36,4H37V5H36zM38,4H39V5H38zM39,4H40V5H39zM40,4H41V5H40zM41,4H42V5H41zM42,4H43V5H42zM43,4H44V5H43zM44,4H45V5H44zM4,5H5V6H4zM10,5H11V6H10zM12,5H13V6H12zM13,5H14V6H13zM17,5H18V6H17zM20,5H21V6H20zM22,5H23V6H22zM23,5H24V6H23zM24,5H25V6H24zM29,5H30V6H29zM31,5H32V6H31zM32,5H33V6H32zM33,5H34V6H33zM35,5H36V6H35zM36,5H37V6H36zM38,5H39V6H38zM44,5H45V6H44zM4,6H5V7H4zM6,6H7V7H6zM7,6H8V7H7zM8,6H9V7H8zM10,6H11V7H10zM13,6H14V7H13zM14,6H15V7H14zM15,6H16V7H15zM17,6H18V7H17zM18,6H19V7H18zM20,6H21V7H20zM21,6H22V7H21zM23,6H24V7H23zM24,6H25V7H24zM27,6H28V7H27zM28,6H29V7H28zM31,6H32V7H31zM34,6H35V7H34zM36,6H37V7H36zM38,6H39V7H38zM40,6H41V7H40zM41,6H42V7H41zM42,6H43V7H42zM44,6H45V7H44zM4,7H5V8H4zM6,7H7V8H6zM7,7H8V8H7zM8,7H9V8H8zM10,7H11V8H10zM12,7H13V8H12zM14,7H15V8H14zM15,7H16V8H15zM16,7H17V8H16zM18,7H19V8H18zM19,7H20V8H19zM20,7H21V8H20zM25,7H26V8H25zM28,7H29V8H28zM30,7H31V8H30zM32,7H33V8H32zM34,7H35V8H34zM35,7H36V8H35zM38,7H39V8H38zM40,7H41V8H40zM41,7H42V8H41zM42,7H43V8H42zM44,7H45V8H44zM4,8H5V9H4zM6,8H7V9H6zM7,8H8V9H7zM8,8H9V9H8zM10,8H11V9H10zM16,8H17V9H16zM17,8H18V9H17zM18,8H19V9H18zM20,8H21V9H20zM21,8H22V9H21zM23,8H24V9H23zM26,8H27V9H26zM27,8H28V9H27zM30,8H31V9H30zM31,8H32V9H31zM33,8H34V9H33zM35,8H36V9H35zM38,8H39V9H38zM40,8H41V9H40zM41,8H42V9H41zM42,8H43V9H42zM44,8H45V9H44zM4,9H5V10H4zM10,9H11V10H10zM13,9H14V10H13zM15,9H16V10H15zM17,9H18V10H17zM19,9H20V10H19zM22,9H23V10H22zM26,9H27V10H26zM27,9H28V10H27zM30,9H31V10H30zM31,9H32V10H31zM33,9H34V10H33zM36,9H37V10H36zM38,9H39V10H38zM44,9H45V10H44zM4,10H5V11H4zM5,10H6V11H5zM6,10H7V11H6zM7,10H8V11H7zM8,10H9V11H8zM9,10H10V11H9zM10,10H11V11H10zM12,10H13V11H12zM14,10H15V11H14zM16,10H17V11H16zM18,10H19V11H18zM20,10H21V11H20zM22,10H23V11H22zM24,10H25V11H24zM26,10H27V11H26zM28,10H29V11H28zM30,10H31V11H30zM32,10H33V11H32zM34,10H35V11H34zM36,10H37V11H36zM38,10H39V11H38zM39,10H40V11H39zM40,10H41V11H40zM41,10H42V11H41zM42,10H43V11H42zM43,10H44V11H43zM44,10H45V11H44zM12,11H13V12H12zM14,11H15V12H14zM16,11H17V12H16zM17,11H18V12H17zM20,11H21V12H20zM22,11H23V12H22zM23,11H24V12H23zM24,11H25V12H24zM25,11H26V12H25zM28,11H29V12H28zM29,11H30V12H29zM30,11H31V12H30zM31,11H32V12H31zM32,11H33V12H32zM33,11H34V12H33zM4,12H5V13H4zM6,12H7V13H6zM7,12H8V13H7zM9,12H10V13H9zM10,12H11V13H10zM11,12H12V13H11zM13,12H14V13H13zM17,12H18V13H17zM18,12H19V13H18zM21,12H22V13H21zM26,12H27V13H26zM28,12H29V13H28zM30,12H31V13H30zM31,12H32V13H31zM33,12H34V13H33zM34,12H35V13H34zM36,12H37V13H36zM38,12H39V13H38zM41,12H42V13H41zM43,12H44V13H43zM44,12H45V13H44zM6,13H7V14H6zM8,13H9V14H8zM9,13H10V14H9zM12,13H13V14H12zM13,13H14V14H13zM14,13H15V14H14zM15,13H16V14H15zM16,13H17V14H16zM17,13H18V14H17zM18,13H19V14H18zM19,13H20V14H19zM20,13H21V14H20zM23,13H24V14H23zM24,13H25V14H24zM27,13H28V14H27zM28,13H29V14H28zM31,13H32V14H31zM33,13H34V14H33zM35,13H36V14H35zM36,13H37V14H36zM37,13H38V14H37zM43,13H44V14H43zM44,13H45V14H44zM5,14H6V15H5zM7,14H8V15H7zM8,14H9V15H8zM10,14H11V15H10zM12,14H13V15H12zM14,14H15V15H14zM15,14H16V15H15zM20,14H21V15H20zM22,14H23V15H22zM23,14H24V15H23zM26,14H27V15H26zM28,14H29V15H28zM29,14H30V15H29zM31,14H32V15H31zM34,14H35V15H34zM38,14H39V15H38zM39,14H40V15H39zM41,14H42V15H41zM44,14H45V15H44zM4,15H5V16H4zM5,15H6V16H5zM9,15H10V16H9zM11,15H12V16H11zM14,15H15V16H14zM15,15H16V16H15zM17,15H18V16H17zM18,15H19V16H18zM19,15H20V16H19zM21,15H22V16H21zM25,15H26V16H25zM28,15H29V16H28zM30,15H31V16H30zM31,15H32V16H31zM32,15H33V16H32zM33,15H34V16H33zM34,15H35V16H34zM36,15H37V16H36zM39,15H40V16H39zM40,15H41V16H40zM43,15H44V16H43zM4,16H5V17H4zM9,16H10V17H9zM10,16H11V17H10zM12,16H13V17H12zM14,16H15V17H14zM16,16H17V17H16zM22,16H23V17H22zM23,16H24V17H23zM24,16H25V17H24zM28,16H29V17H28zM29,16H30V17H29zM30,16H31V17H30zM32,16H33V17H32zM33,16H34V17H33zM34,16H35V17H34zM35,16H36V17H35zM37,16H38V17H37zM38,16H39V17H38zM42,16H43V17H42zM4,17H5V18H4zM5,17H6V18H5zM7,17H8V18H7zM8,17H9V18H8zM9,17H10V18H9zM14,17H15V18H14zM15,17H16V18H15zM21,17H22V18H21zM24,17H25V18H24zM25,17H26V18H25zM27,17H28V18H27zM28,17H29V18H28zM30,17H31V18H30zM33,17H34V18H33zM34,17H35V18H34zM36,17H37V18H36zM39,17H40V18H39zM40,17H41V18H40zM42,17H43V18H42zM43,17H44V18H43zM4,18H5V19H4zM5,18H6V19H5zM6,18H7V19H6zM8,18H9V19H8zM9,18H10V19H9zM10,18H11V19H10zM12,18H13V19H12zM13,18H14V19H13zM16,18H17V19H16zM19,18H20V19H19zM22,18H23V19H22zM23,18H24V19H23zM24,18H25V19H24zM26,18H27V19H26zM27,18H28V19H27zM29,18H30V19H29zM34,18H35V19H34zM38,18H39V19H38zM39,18H40V19H39zM41,18H42V19H41zM4,19H5V20H4zM6,19H7V20H6zM7,19H8V20H7zM14,19H15V20H14zM15,19H16V20H15zM16,19H17V20H16zM18,19H19V20H18zM19,19H20V20H19zM21,19H22V20H21zM27,19H28V20H27zM29,19H30V20H29zM31,19H32V20H31zM33,19H34V20H33zM39,19H40V20H39zM42,19H43V20H42zM4,20H5V21H4zM8,20H9V21H8zM10,20H11V21H10zM11,20H12V21H11zM13,20H14V21H13zM14,20H15V21H14zM15,20H16V21H15zM17,20H18V21H17zM18,20H19V21H18zM19,20H20V21H19zM24,20H25V21H24zM29,20H30V21H29zM37,20H38V21H37zM39,20H40V21H39zM40,20H41V21H40zM42,20H43V21H42zM44,20H45V21H44zM4,21H5V22H4zM5,21H6V22H5zM6,21H7V22H6zM7,21H8V22H7zM9,21H10V22H9zM11,21H12V22H11zM12,21H13V22H12zM13,21H14V22H13zM14,21H15V22H14zM16,21H17V22H16zM22,21H23V22H22zM23,21H24V22H23zM25,21H26V22H25zM27,21H28V22H27zM28,21H29V22H28zM29,21H30V22H29zM32,21H33V22H32zM33,21H34V22H33zM34,21H35V22H34zM39,21H40V22H39zM42,21H43V22H42zM4,22H5V23H4zM5,22H6V23H5zM8,22H9V23H8zM10,22H11V23H10zM11,22H12V23H11zM13,22H14V23H13zM14,22H15V23H14zM15,22H16V23H15zM17,22H18V23H17zM18,22H19V23H18zM19,22H20V23H19zM22,22H23V23H22zM23,22H24V23H23zM26,22H27V23H26zM27,22H28V23H27zM32,22H33V23H32zM33,22H34V23H33zM35,22H36V23H35zM37,22H38V23H37zM41,22H42V23H41zM42,22H43V23H42zM43,22H44V23H43zM44,22H45V23H44zM8,23H9V24H8zM13,23H14V24H13zM14,23H15V24H14zM15,23H16V24H15zM16,23H17V24H16zM17,23H18V24H17zM19,23H20V24H19zM20,23H21V24H20zM21,23H22V24H21zM22,23H23V24H22zM23,23H24V24H23zM24,23H25V24H24zM25,23H26V24H25zM28,23H29V24H28zM32,23H33V24H32zM43,23H44V24H43zM44,23H45V24H44zM4,24H5V25H4zM5,24H6V25H5zM6,24H7V25H6zM7,24H8V25H7zM9,24H10V25H9zM10,24H11V25H10zM13,24H14V25H13zM14,24H15V25H14zM16,24H17V25H16zM18,24H19V25H18zM24,24H25V25H24zM27,24H28V25H27zM29,24H30V25H29zM32,24H33V25H32zM34,24H35V25H34zM35,24H36V25H35zM37,24H38V25H37zM39,24H40V25H39zM40,24H41V25H40zM42,24H43V25H42zM43,24H44V25H43zM44,24H45V25H44zM4,25H5V26H4zM6,25H7V26H6zM7,25H8V26H7zM12,25H13V26H12zM17,25H18V26H17zM20,25H21V26H20zM21,25H22V26H21zM23,25H24V26H23zM27,25H28V26H27zM29,25H30V26H29zM30,25H31V26H30zM33,25H34V26H33zM34,25H35V26H34zM37,25H38V26H37zM38,25H39V26H38zM42,25H43V26H42zM44,25H45V26H44zM8,26H9V27H8zM9,26H10V27H9zM10,26H11V27H10zM12,26H13V27H12zM13,26H14V27H13zM15,26H16V27H15zM19,26H20V27H19zM23,26H24V27H23zM24,26H25V27H24zM25,26H26V27H25zM26,26H27V27H26zM28,26H29V27H28zM30,26H31V27H30zM31,26H32V27H31zM33,26H34V27H33zM35,26H36V27H35zM42,26H43V27H42zM43,26H44V27H43zM5,27H6V28H5zM7,27H8V28H7zM11,27H12V28H11zM15,27H16V28H15zM17,27H18V28H17zM18,27H19V28H18zM21,27H22V28H21zM23,27H24V28H23zM25,27H26V28H25zM27,27H28V28H27zM28,27H29V28H28zM30,27H31V28H30zM32,27H33V28H32zM34,27H35V28H34zM35,27H36V28H35zM36,27H37V28H36zM38,27H39V28H38zM39,27H40V28H39zM41,27H42V28H41zM42,27H43V28H42zM43,27H44V28H43zM44,27H45V28H44zM4,28H5V29H4zM5,28H6V29H5zM8,28H9V29H8zM9,28H10V29H9zM10,28H11V29H10zM12,28H13V29H12zM16,28H17V29H16zM17,28H18V29H17zM19,28H20V29H19zM20,28H21V29H20zM22,28H23V29H22zM23,28H24V29H23zM26,28H27V29H26zM27,28H28V29H27zM28,28H29V29H28zM33,28H34V29H33zM34,28H35V29H34zM35,28H36V29H35zM38,28H39V29H38zM39,28H40V29H39zM43,28H44V29H43zM44,28H45V29H44zM6,29H7V30H6zM7,29H8V30H7zM13,29H14V30H13zM15,29H16V30H15zM16,29H17V30H16zM24,29H25V30H24zM28,29H29V30H28zM35,29H36V30H35zM38,29H39V30H38zM39,29H40V30H39zM40,29H41V30H40zM41,29H42V30H41zM42,29H43V30H42zM44,29H45V30H44zM6,30H7V31H6zM7,30H8V31H7zM8,30H9V31H8zM10,30H11V31H10zM11,30H12V31H11zM12,30H13V31H12zM13,30H14V31H13zM14,30H15V31H14zM15,30H16V31H15zM17,30H18V31H17zM18,30H19V31H18zM21,30H22V31H21zM25,30H26V31H25zM26,30H27V31H26zM27,30H28V31H27zM28,30H29V31H28zM30,30H31V31H30zM31,30H32V31H31zM32,30H33V31H32zM34,30H35V31H34zM35,30H36V31H35zM37,30H38V31H37zM39,30H40V31H39zM43,30H44V31H43zM4,31H5V32H4zM5,31H6V32H5zM7,31H8V32H7zM11,31H12V32H11zM12,31H13V32H12zM13,31H14V32H13zM15,31H16V32H15zM17,31H18V32H17zM18,31H19V32H18zM20,31H21V32H20zM21,31H22V32H21zM22,31H23V32H22zM27,31H28V32H27zM28,31H29V32H28zM29,31H30V32H29zM32,31H33V32H32zM33,31H34V32H33zM34,31H35V32H34zM36,31H37V32H36zM38,31H39V32H38zM39,31H40V32H39zM40,31H41V32H40zM41,31H42V32H41zM44,31H45V32H44zM4,32H5V33H4zM6,32H7V33H6zM7,32H8V33H7zM8,32H9V33H8zM9,32H10V33H9zM10,32H11V33H10zM12,32H13V33H12zM13,32H14V33H13zM14,32H15V33H14zM15,32H16V33H15zM17,32H18V33H17zM18,32H19V33H18zM19,32H20V33H19zM21,32H22V33H21zM23,32H24V33H23zM24,32H25V33H24zM25,32H26V33H25zM26,32H27V33H26zM27,32H28V33H27zM28,32H29V33H28zM30,32H31V33H30zM33,32H34V33H33zM36,32H37V33H36zM37,32H38V33H37zM38,32H39V33H38zM39,32H40V33H39zM43,32H44V33H43zM44,32H45V33H44zM6,33H7V34H6zM7,33H8V34H7zM9,33H10V34H9zM11,33H12V34H11zM12,33H13V34H12zM14,33H15V34H14zM16,33H17V34H16zM17,33H18V34H17zM19,33H20V34H19zM22,33H23V34H22zM23,33H24V34H23zM24,33H25V34H24zM26,33H27V34H26zM29,33H30V34H29zM30,33H31V34H30zM33,33H34V34H33zM40,33H41V34H40zM41,33H42V34H41zM4,34H5V35H4zM6,34H7V35H6zM9,34H10V35H9zM10,34H11V35H10zM11,34H12V35H11zM13,34H14V35H13zM17,34H18V35H17zM22,34H23V35H22zM23,34H24V35H23zM25,34H26V35H25zM29,34H30V35H29zM30,34H31V35H30zM34,34H35V35H34zM35,34H36V35H35zM36,34H37V35H36zM37,34H38V35H37zM39,34H40V35H39zM40,34H41V35H40zM41,34H42V35H41zM44,34H45V35H44zM7,35H8V36H7zM8,35H9V36H8zM11,35H12V36H11zM12,35H13V36H12zM14,35H15V36H14zM16,35H17V36H16zM17,35H18V36H17zM19,35H20V36H19zM20,35H21V36H20zM23,35H24V36H23zM25,35H26V36H25zM27,35H28V36H27zM29,35H30V36H29zM31,35H32V36H31zM32,35H33V36H32zM34,35H35V36H34zM35,35H36V36H35zM37,35H38V36H37zM38,35H39V36H38zM41,35H42V36H41zM44,35H45V36H44zM5,36H6V37H5zM6,36H7V37H6zM7,36H8V37H7zM8,36H9V37H8zM9,36H10V37H9zM10,36H11V37H10zM14,36H15V37H14zM16,36H17V37H16zM20,36H21V37H20zM24,36H25V37H24zM25,36H26V37H25zM28,36H29V37H28zM29,36H30V37H29zM31,36H32V37H31zM32,36H33V37H32zM33,36H34V37H33zM35,36H36V37H35zM36,36H37V37H36zM37,36H38V37H37zM38,36H39V37H38zM39,36H40V37H39zM40,36H41V37H40zM41,36H42V37H41zM42,36H43V37H42zM43,36H44V37H43zM44,36H45V37H44zM12,37H13V38H12zM14,37H15V38H14zM15,37H16V38H15zM17,37H18V38H17zM18,37H19V38H18zM19,37H20V38H19zM20,37H21V38H20zM21,37H22V38H21zM22,37H23V38H22zM25,37H26V38H25zM28,37H29V38H28zM29,37H30V38H29zM30,37H31V38H30zM32,37H33V38H32zM35,37H36V38H35zM36,37H37V38H36zM40,37H41V38H40zM43,37H44V38H43zM44,37H45V38H44zM4,38H5V39H4zM5,38H6V39H5zM6,38H7V39H6zM7,38H8V39H7zM8,38H9V39H8zM9,38H10V39H9zM10,38H11V39H10zM12,38H13V39H12zM15,38H16V39H15zM16,38H17V39H16zM20,38H21V39H20zM22,38H23V39H22zM23,38H24V39H23zM29,38H30V39H29zM31,38H32V39H31zM32,38H33V39H32zM33,38H34V39H33zM36,38H37V39H36zM38,38H39V39H38zM40,38H41V39H40zM41,38H42V39H41zM43,38H44V39H43zM44,38H45V39H44zM4,39H5V40H4zM10,39H11V40H10zM12,39H13V40H12zM15,39H16V40H15zM16,39H17V40H16zM17,39H18V40H17zM20,39H21V40H20zM21,39H22V40H21zM24,39H25V40H24zM28,39H29V40H28zM31,39H32V40H31zM32,39H33V40H32zM34,39H35V40H34zM35,39H36V40H35zM36,39H37V40H36zM40,39H41V40H40zM42,39H43V40H42zM43,39H44V40H43zM4,40H5V41H4zM6,40H7V41H6zM7,40H8V41H7zM8,40H9V41H8zM10,40H11V41H10zM13,40H14V41H13zM15,40H16V41H15zM17,40H18V41H17zM18,40H19V41H18zM20,40H21V41H20zM24,40H25V41H24zM25,40H26V41H25zM30,40H31V41H30zM31,40H32V41H31zM34,40H35V41H34zM35,40H36V41H35zM36,40H37V41H36zM37,40H38V41H37zM38,40H39V41H38zM39,40H40V41H39zM40,40H41V41H40zM42,40H43V41H42zM44,40H45V41H44zM4,41H5V42H4zM6,41H7V42H6zM7,41H8V42H7zM8,41H9V42H8zM10,41H11V42H10zM12,41H13V42H12zM14,41H15V42H14zM18,41H19V42H18zM19,41H20V42H19zM21,41H22V42H21zM23,41H24V42H23zM24,41H25V42H24zM26,41H27V42H26zM29,41H30V42H29zM30,41H31V42H30zM31,41H32V42H31zM32,41H33V42H32zM33,41H34V42H33zM34,41H35V42H34zM37,41H38V42H37zM39,41H40V42H39zM43,41H44V42H43zM4,42H5V43H4zM6,42H7V43H6zM7,42H8V43H7zM8,42H9V43H8zM10,42H11V43H10zM12,42H13V43H12zM13,42H14V43H13zM16,42H17V43H16zM17,42H18V43H17zM20,42H21V43H20zM21,42H22V43H21zM25,42H26V43H25zM27,42H28V43H27zM28,42H29V43H28zM30,42H31V43H30zM31,42H32V43H31zM32,42H33V43H32zM37,42H38V43H37zM39,42H40V43H39zM42,42H43V43H42zM43,42H44V43H43zM44,42H45V43H44zM4,43H5V44H4zM10,43H11V44H10zM15,43H16V44H15zM16,43H17V44H16zM18,43H19V44H18zM24,43H25V44H24zM26,43H27V44H26zM27,43H28V44H27zM28,43H29V44H28zM29,43H30V44H29zM30,43H31V44H30zM31,43H32V44H31zM32,43H33V44H32zM33,43H34V44H33zM34,43H35V44H34zM35,43H36V44H35zM36,43H37V44H36zM39,43H40V44H39zM40,43H41V44H40zM41,43H42V44H41zM42,43H43V44H42zM43,43H44V44H43zM4,44H5V45H4zM5,44H6V45H5zM6,44H7V45H6zM7,44H8V45H7zM8,44H9V45H8zM9,44H10V45H9zM10,44H11V45H10zM12,44H13V45H12zM13,44H14V45H13zM14,44H15V45H14zM15,44H16V45H15zM16,44H17V45H16zM17,44H18V45H17zM18,44H19V45H18zM19,44H20V45H19zM20,44H21V45H20zM21,44H22V45H21zM22,44H23V45H22zM24,44H25V45H24zM25,44H26V45H25zM28,44H29V45H28zM29,44H30V45H29zM30,44H31V45H30zM31,44H32V45H31zM34,44H35V45H34zM43,44H44V45H43z" id="qr-path" fill="#000000" fill-opacity="1" fill-rule="nonzero" stroke="none"/></svg>